<svg width="356" viewBox="0 0 356 0" fill="none" xmlns="http://www.w3.org/2000/svg">
<g filter="url(#filter0_d_75_105)">
<path d="M-2.66667 0C-2.66667 1.47276 -1.47276 2.66667 0 2.66667C1.47276 2.66667 2.66667 1.47276 2.66667 0C2.66667 -1.47276 1.47276 -2.66667 0 -2.66667C-1.47276 -2.66667 -2.66667 -1.47276 -2.66667 0ZM353.333 0C353.333 1.47276 354.527 2.66667 356 2.66667C357.473 2.66667 358.667 1.47276 358.667 0C358.667 -1.47276 357.473 -2.66667 356 -2.66667C354.527 -2.66667 353.333 -1.47276 353.333 0ZM0 0.5H356V-0.5H0V0.5Z" fill="black"/>
</g>
<defs>
<filter id="filter0_d_75_105" x="-6.66669" y="-2.66675" width="369.333" height="13.3335" filterUnits="userSpaceOnUse" color-interpolation-filters="sRGB">
<feFlood flood-opacity="0" result="BackgroundImageFix"/>
<feColorMatrix in="SourceAlpha" type="matrix" values="0 0 0 0 0 0 0 0 0 0 0 0 0 0 0 0 0 0 127 0" result="hardAlpha"/>
<feOffset dy="4"/>
<feGaussianBlur stdDeviation="2"/>
<feComposite in2="hardAlpha" operator="out"/>
<feColorMatrix type="matrix" values="0 0 0 0 0 0 0 0 0 0 0 0 0 0 0 0 0 0 0.25 0"/>
<feBlend mode="normal" in2="BackgroundImageFix" result="effect1_dropShadow_75_105"/>
<feBlend mode="normal" in="SourceGraphic" in2="effect1_dropShadow_75_105" result="shape"/>
</filter>
</defs>
</svg>
